Coordinates
version=1
nRows=13
nColumns=36
inDegrees=yes

Units are S.I. units (second, meters, Newtons, ...)
If the header above contains a line with 'inDegrees', this indicates whether rotational values are in degrees (yes) or radians (no).

endheader
time	pelvis_tilt	pelvis_list	pelvis_rotation	pelvis_tx	pelvis_ty	pelvis_tz	hip_flexion_r	hip_adduction_r	hip_rotation_r	knee_angle_r	knee_angle_r_beta	ankle_angle_r	subtalar_angle_r	mtp_angle_r	hip_flexion_l	hip_adduction_l	hip_rotation_l	knee_angle_l	knee_angle_l_beta	ankle_angle_l	subtalar_angle_l	mtp_angle_l	lumbar_extension	lumbar_bending	lumbar_rotation	arm_flex_r	arm_add_r	arm_rot_r	elbow_flex_r	pro_sup_r	arm_flex_l	arm_add_l	arm_rot_l	elbow_flex_l	pro_sup_l
      0.00000000	     -8.79213142	     -1.27295522	     -9.57087473	      1.38864638	      1.00930166	      0.07220058	      7.87852242	     -4.03956552	    -10.38210849	      0.38747789	      0.00676276	     -1.07128331	      2.59198790	     -6.66955262	      6.42286963	     -8.73306040	     -3.40364584	      0.47491777	      0.00828888	      4.57080337	      2.48794952	     -6.66955262	      7.59446393	      1.49557505	     -0.46481066	     30.17895043	      1.19873842	     53.93097360	    121.25043105	     76.65179670	     28.21031071	     -0.47182124	     72.69150384	    128.29292919	     83.32944861
      0.01666670	     -8.59923667	     -1.02467467	    -11.06885818	      1.39111483	      1.00601416	      0.07371151	      8.07205307	     -4.37380113	     -9.54242816	      0.44288477	      0.00772980	     -0.66579322	      3.95085810	     -6.90972009	      6.02634432	     -8.61978580	     -4.07668327	      0.86861765	      0.01516024	      3.06941568	     -0.65729230	     -6.90972009	      6.93090669	      1.49365796	      1.68783524	     32.09914106	     -1.77154626	     61.22665384	    127.86948420	     92.18242391	     28.23545763	     -0.99883944	     68.47701364	    133.01083086	     99.17930655
      0.03333330	     -8.88608888	     -1.18053507	    -11.37213263	      1.39210290	      1.00919977	      0.07458506	      8.46649648	     -4.11544649	     -8.92736520	      0.44250008	      0.00772308	     -1.34993042	      3.46438295	     -7.05726267	      6.42381953	     -8.91160616	     -4.46302759	      1.14373370	      0.01996192	      2.67003843	     -0.45052738	     -7.05726267	      7.24802664	      1.70187124	      1.10182102	     31.51785009	     -0.44852970	     60.72627517	    128.44003891	     98.23901004	     27.71569064	     -1.15140430	     66.95945632	    133.86331507	    105.40571900
      0.05000000	     -8.55094916	     -1.24660635	    -11.18780853	      1.39167322	      1.00881412	      0.07425594	      8.13556695	     -4.30794022	     -9.56847230	      0.43330192	      0.00756255	     -1.24027582	      4.57733298	     -7.15196681	      6.38329429	     -8.90164425	     -4.65869730	      1.55327826	      0.02710982	      2.86444895	     -0.35905957	     -7.15196681	      6.77058127	      1.55635997	      0.19266893	     31.72188452	      0.68507469	     60.74679778	    127.89674971	     99.23488415	     28.12205636	     -1.07607069	     66.11134617	    134.23556522	    104.32807287
      0.06666670	     -8.16807586	     -1.33943276	    -11.12484647	      1.39117605	      1.00711260	      0.07473334	      7.74292655	     -4.36511176	     -9.60385906	      0.49055743	      0.00856184	     -1.09373350	      4.70106395	     -7.23680680	      6.20157607	     -8.95736252	     -4.69896442	      1.90937813	      0.03332494	      3.05378654	     -0.46743012	     -7.23680680	      6.19857646	      1.49932266	     -0.09213931	     31.88034665	      1.35389839	     60.80831538	    127.51216433	     94.74511626	     28.92324819	     -0.78201707	     65.95335392	    134.34048049	     97.78158290
      0.08333330	     -8.08059424	     -1.26410772	    -10.98199729	      1.39088269	      1.00945035	      0.07430519	      7.63638325	     -4.57047319	     -9.87497425	      0.55482242	      0.00968348	     -0.92532513	      5.02389352	     -7.29956862	      6.33563912	     -8.88516175	     -4.75143035	      2.26706127	      0.03956768	      3.25183385	     -0.05424133	     -7.29956862	      6.07675489	      1.45799924	     -0.63016419	     31.99500805	      1.81415425	     60.89608280	    126.85095395	    100.94372244	     29.13867227	     -0.77707880	     65.19064733	    134.58592601	    100.11020897
      0.10000000	     -8.00392810	     -1.13962563	    -10.94273946	      1.39057173	      1.00938714	      0.07469451	      7.55852376	     -4.77761314	     -9.90988151	      0.59064374	      0.01030868	     -0.80556397	      5.00351614	     -7.33574359	      6.38366040	     -8.77325806	     -4.86713776	      2.50212708	      0.04367036	      3.37509036	      0.26381393	     -7.33574359	      5.99848344	      1.33010909	     -0.84209418	     32.02553069	      2.01928145	     61.04804448	    126.46048857	    100.26723720	     29.39537038	     -0.79297155	     64.89898889	    134.72343487	     98.43697704
      0.11666670	     -8.01400135	     -1.03924106	    -10.87435594	      1.39021986	      1.00928231	      0.07463185	      7.56464031	     -4.91141023	     -9.90156621	      0.61244886	      0.01068925	     -0.69524772	      4.90048417	     -7.39507250	      6.50575537	     -8.69771044	     -4.92456577	      2.67741775	      0.04672976	      3.44512802	      0.56750193	     -7.39507250	      5.99510075	      1.17628164	     -0.90769687	     31.94509282	      2.15768154	     60.83849366	    126.40453437	     99.90276223	     29.71850908	     -0.77555045	     64.91110883	    134.77642495	     96.68908479
      0.13333330	     -8.00427239	     -0.97705428	    -10.84894397	      1.38997533	      1.00912574	      0.07492264	      7.54375803	     -4.98205548	     -9.77652003	      0.62312595	      0.01087560	     -0.59632118	      4.73072335	     -7.44712198	      6.54343026	     -8.65324035	     -5.14695689	      2.78700300	      0.04864238	      3.59163763	      1.00167155	     -7.44712198	      5.97133434	      1.11700230	     -0.82253595	     32.08253673	      2.31710163	     60.59394782	    126.35536360	     99.45164335	     29.93698369	     -0.72869280	     64.99128784	    134.85796484	     94.14206181
      0.15000000	     -8.04880927	     -0.91695401	    -10.69290131	      1.38960000	      1.00891857	      0.07462788	      7.55268236	     -5.04718461	     -9.86260185	      0.63068029	      0.01100745	     -0.45827427	      4.61216863	     -7.48290441	      6.70631989	     -8.60204971	     -5.03913905	      2.89747523	      0.05057048	      3.58997915	      0.98124120	     -7.48290441	      6.02318507	      0.97084878	     -0.71716056	     31.95727379	      2.24405743	     60.14643765	    126.56070463	     99.65133557	     30.23736770	     -0.53203302	     65.08041853	    134.90119240	     93.20808168
      0.16666670	     -8.06231201	     -0.87339115	    -10.66387533	      1.38948327	      1.00551039	      0.07472954	      7.56202029	     -5.08539131	     -9.73784175	      0.65274686	      0.01139258	     -0.28348847	      4.39169126	     -7.49640803	      6.80533371	     -8.57416508	     -5.15096119	      3.01414363	      0.05260673	      3.74988327	      1.15517433	     -7.49640803	      6.03102312	      0.90788038	     -0.53468694	     32.00676773	      2.11354077	     59.40546493	    126.76581789	     99.16702862	     30.62332082	     -0.37569910	     65.19895623	    135.01508372	     92.28770294
      0.18333330	     -8.05871970	     -0.87734227	    -10.46984213	      1.38907611	      1.00877331	      0.07458978	      7.48602288	     -5.10849499	     -9.83660537	      0.67026928	      0.01169841	     -0.13827176	      4.30112541	     -7.49865576	      6.92003915	     -8.57424341	     -5.01319457	      3.11717999	      0.05440505	      3.81711438	      1.20623720	     -7.49865576	      5.90358312	      0.90403554	     -0.56729166	     32.20085627	      1.82806980	     59.19802851	    126.78604265	     98.76194899	     30.68386799	     -0.44258795	     65.45831878	    135.10560108	     92.00346509
      0.20000000	     -8.05077741	     -0.87295634	    -10.36831882	      1.38909646	      1.00859981	      0.07461532	      7.43317542	     -5.12096808	     -9.90801376	      0.68523694	      0.01195964	     -0.00044355	      4.18226365	     -7.49959947	      7.01613832	     -8.57147996	     -4.95527749	      3.24460700	      0.05662908	      3.89729475	      1.24491089	     -7.49959947	      5.77284229	      0.86905272	     -0.39048156	     32.17333064	      1.59427268	     59.32167561	    126.88922353	     98.43240629	     30.78085113	     -0.38949402	     65.69184663	    135.09590740	     91.46594798
